<svg width="32" height="32" viewBox="0 0 32 32" fill="none" xmlns="http://www.w3.org/2000/svg">
<path d="M29.4373 0.00286983H2.73975C2.39564 -0.0132487 2.05171 0.038647 1.72768 0.155616C1.40365 0.272586 1.10588 0.452308 0.851383 0.684487C0.596906 0.916686 0.390705 1.1968 0.244618 1.50877C0.0985313 1.82076 0.0153986 2.15849 0 2.50264V29.2602C0.0201582 29.9804 0.315291 30.6657 0.824784 31.1751C1.33428 31.6846 2.01949 31.9798 2.73975 32H29.4373C30.1374 31.9688 30.7976 31.6644 31.2761 31.1523C31.7547 30.6401 32.0135 29.961 31.9971 29.2602V2.50264C32.0029 2.16767 31.9401 1.83508 31.8127 1.52523C31.6853 1.2154 31.4959 0.934844 31.2561 0.700766C31.0166 0.466707 30.7316 0.284085 30.4188 0.164076C30.106 0.0440666 29.7721 -0.0107889 29.4373 0.00286983ZM9.99908 26.6805H5.33951V12.4218H9.99908V26.6805ZM7.77929 10.2619C7.45414 10.2733 7.13015 10.2172 6.82769 10.0974C6.52522 9.9775 6.25081 9.79637 6.02171 9.56537C5.79259 9.33438 5.61371 9.0585 5.49632 8.75507C5.37891 8.45164 5.32553 8.12721 5.33951 7.80216C5.32513 7.47359 5.37959 7.14566 5.4994 6.83938C5.61921 6.53309 5.80171 6.25524 6.03519 6.02364C6.26869 5.79202 6.548 5.61178 6.85523 5.49447C7.16248 5.37714 7.49085 5.32534 7.81928 5.34238C8.14443 5.33106 8.46843 5.38708 8.77088 5.50695C9.07335 5.62682 9.34776 5.80794 9.57686 6.03894C9.80598 6.26994 9.98487 6.54581 10.1023 6.84924C10.2197 7.15268 10.273 7.47711 10.2591 7.80216C10.2734 8.13073 10.219 8.45866 10.0992 8.76493C9.97937 9.07122 9.79686 9.34908 9.56338 9.58067C9.32989 9.81229 9.05057 9.99254 8.74334 10.1098C8.43609 10.2272 8.10772 10.279 7.77929 10.2619ZM26.6776 26.6805H21.998V18.8812C21.998 17.0214 21.338 15.7415 19.6782 15.7415C19.1626 15.7459 18.6609 15.9097 18.2421 16.2104C17.8232 16.5112 17.5076 16.9342 17.3384 17.4213C17.2084 17.7865 17.154 18.1743 17.1784 18.5612V26.6805H12.5788V12.4218H17.1784V14.4216C17.5874 13.6703 18.1959 13.0467 18.9371 12.6196C19.6782 12.1926 20.5229 11.9788 21.378 12.0018C24.3978 12.0018 26.6776 14.0016 26.6776 18.2613V26.6805Z" fill="#282F36"/>
</svg>
