<svg width="214" height="145" viewBox="0 0 214 145" fill="none" xmlns="http://www.w3.org/2000/svg">
<g filter="url(#filter0_d_1318_527)">
<path d="M62.2626 14.4853C62.2626 9.24768 66.5103 5 71.7479 5C76.9855 5 81.2331 9.24768 81.2331 14.4853C81.2331 19.7228 76.9855 23.9705 71.7479 23.9705C66.5103 23.9705 62.2626 19.7228 62.2626 14.4853Z" fill="#4DC16B"/>
<path d="M62.2626 121.789C62.2626 116.552 66.5103 112.304 71.7479 112.304C76.9855 112.304 81.2331 116.552 81.2331 121.789C81.2331 127.027 76.9855 131.271 71.7479 131.271C66.5103 131.271 62.2626 127.027 62.2626 121.789Z" fill="#4DC16B"/>
<path d="M8.6123 68.1356C8.6123 62.898 12.86 58.6503 18.0976 58.6503C23.3351 58.6503 27.5828 62.898 27.5828 68.1356C27.5828 73.3732 23.3351 77.6209 18.0976 77.6209C12.86 77.6209 8.6123 73.3732 8.6123 68.1356Z" fill="#4DC16B"/>
<path d="M97.2208 68.1356C97.2208 62.898 101.468 58.6503 106.706 58.6503C111.944 58.6503 116.191 62.898 116.191 68.1356C116.191 73.3732 111.944 77.6209 106.706 77.6209C101.468 77.6209 97.2208 73.3732 97.2208 68.1356Z" fill="#4DC16B"/>
<path d="M151.149 122.739C151.149 127.976 146.905 132.224 141.667 132.224C136.429 132.224 132.182 127.976 132.182 122.739C132.182 117.501 136.429 113.253 141.667 113.253C146.905 113.253 151.149 117.498 151.149 122.739Z" fill="#4DC16B"/>
<path d="M151.149 15.4344C151.149 20.672 146.905 24.9197 141.667 24.9197C136.429 24.9197 132.182 20.672 132.182 15.4344C132.182 10.1969 136.429 5.94918 141.667 5.94918C146.905 5.94918 151.149 10.1969 151.149 15.4344Z" fill="#4DC16B"/>
<path d="M204.799 69.0882C204.799 74.3258 200.555 78.5735 195.318 78.5735C190.08 78.5735 185.832 74.3258 185.832 69.0882C185.832 63.8506 190.08 59.6029 195.318 59.6029C200.555 59.6029 204.799 63.8506 204.799 69.0882Z" fill="#4DC16B"/>
<path d="M124.066 33.0795L141.694 15.4514L195.256 69.0136L141.694 122.745L91.3525 72.4036M89.488 104.27L71.8599 121.898L18.2977 68.3356L71.8599 14.6039L122.202 64.9456M62.2626 14.4853C62.2626 9.24768 66.5103 5 71.7479 5C76.9855 5 81.2331 9.24768 81.2331 14.4853C81.2331 19.7228 76.9855 23.9705 71.7479 23.9705C66.5103 23.9705 62.2626 19.7228 62.2626 14.4853ZM62.2626 121.789C62.2626 116.552 66.5103 112.304 71.7479 112.304C76.9855 112.304 81.2331 116.552 81.2331 121.789C81.2331 127.027 76.9855 131.271 71.7479 131.271C66.5103 131.271 62.2626 127.027 62.2626 121.789ZM8.6123 68.1356C8.6123 62.898 12.86 58.6503 18.0976 58.6503C23.3351 58.6503 27.5828 62.898 27.5828 68.1356C27.5828 73.3732 23.3351 77.6209 18.0976 77.6209C12.86 77.6209 8.6123 73.3732 8.6123 68.1356ZM97.2208 68.1356C97.2208 62.898 101.468 58.6503 106.706 58.6503C111.944 58.6503 116.191 62.898 116.191 68.1356C116.191 73.3732 111.944 77.6209 106.706 77.6209C101.468 77.6209 97.2208 73.3732 97.2208 68.1356ZM151.149 122.739C151.149 127.976 146.905 132.224 141.667 132.224C136.429 132.224 132.182 127.976 132.182 122.739C132.182 117.501 136.429 113.253 141.667 113.253C146.905 113.253 151.149 117.498 151.149 122.739ZM151.149 15.4344C151.149 20.672 146.905 24.9197 141.667 24.9197C136.429 24.9197 132.182 20.672 132.182 15.4344C132.182 10.1969 136.429 5.94918 141.667 5.94918C146.905 5.94918 151.149 10.1969 151.149 15.4344ZM204.799 69.0882C204.799 74.3258 200.555 78.5735 195.318 78.5735C190.08 78.5735 185.832 74.3258 185.832 69.0882C185.832 63.8506 190.08 59.6029 195.318 59.6029C200.555 59.6029 204.799 63.8506 204.799 69.0882Z" stroke="#4DC16B" stroke-width="9.15304" stroke-linecap="round"/>
</g>
<defs>
<filter id="filter0_d_1318_527" x="0.0357666" y="0.423584" width="213.34" height="144.377" filterUnits="userSpaceOnUse" color-interpolation-filters="sRGB">
<feFlood flood-opacity="0" result="BackgroundImageFix"/>
<feColorMatrix in="SourceAlpha" type="matrix" values="0 0 0 0 0 0 0 0 0 0 0 0 0 0 0 0 0 0 127 0" result="hardAlpha"/>
<feOffset dy="4"/>
<feGaussianBlur stdDeviation="2"/>
<feComposite in2="hardAlpha" operator="out"/>
<feColorMatrix type="matrix" values="0 0 0 0 0 0 0 0 0 0 0 0 0 0 0 0 0 0 0.25 0"/>
<feBlend mode="normal" in2="BackgroundImageFix" result="effect1_dropShadow_1318_527"/>
<feBlend mode="normal" in="SourceGraphic" in2="effect1_dropShadow_1318_527" result="shape"/>
</filter>
</defs>
</svg>
